<?xml version="1.0" encoding="utf-8"?>
<!-- Generator: Adobe Illustrator 15.1.0, SVG Export Plug-In . SVG Version: 6.00 Build 0)  -->
<!DOCTYPE svg PUBLIC "-//W3C//DTD SVG 1.1//EN" "http://www.w3.org/Graphics/SVG/1.1/DTD/svg11.dtd">
<svg version="1.1" id="Ebene_2" xmlns="http://www.w3.org/2000/svg" xmlns:xlink="http://www.w3.org/1999/xlink" x="0px" y="0px"
	 width="200px" height="200px" viewBox="0 0 200 200" enable-background="new 0 0 200 200" xml:space="preserve">
<path d="M83.33,171.99L96.36,171H97h5h0.64l13.03,0.99c0.73,0,1.33-0.59,1.33-1.32v-0.34c0-0.73-0.6-1.33-1.33-1.33l-13.03,1H102h-5
	h-0.64l-13.03-1c-0.73,0-1.33,0.6-1.33,1.33v0.34C82,171.4,82.6,171.99,83.33,171.99z"/>
<path fill="#9E005D" d="M72.67,40.69C78.17,41.82,97,45.66,97,45.66V60h0.74h4.9H104V45.66c0,0,18.33-3.84,23.83-4.97
	c5.5-1.12,5.17-4.96,5.17-4.96v-7c0,0-0.57-3.74-6.5-3.74c-2.41,0-12.6,0-23.87,0c-1.62,0-3.26,0-4.9,0c-11.26,0-21.46,0-23.87,0
	C67.94,25,67,28.74,67,28.74v7C67,35.74,67.17,39.57,72.67,40.69z"/>
<path fill="#9E005D" d="M87,162c0-2.76,2.24-5,5-5h16c2.76,0,5,2.24,5,5l0,0c0,2.76-2.24,5-5,5H92C89.24,167,87,164.76,87,162
	L87,162z"/>
<path fill="#5B003B" d="M98,166.33c0-0.74,0.6-1.33,1.33-1.33h0.33c0.74,0,1.33,0.6,1.33,1.33v7.33c0,0.74-0.6,1.33-1.33,1.33h-0.33
	c-0.74,0-1.33-0.6-1.33-1.33V166.33z"/>
<path fill="#9E005D" d="M186.26,118.44c0,0,8.74,0,8.74-5.78S195,98,195,98s-0.01-3.59-7.92-3.57c-0.33,0-1.08,0-1.08,0v0
	l-4.48,0.01l-26.93,26.53L186.26,118.44z"/>
<polygon fill="#5B003B" points="154.59,120.96 181.52,94.43 169.5,94.45 141.24,122.02 "/>
<path fill="#9E005D" d="M13.74,118.44c0,0-8.74,0-8.74-5.78S5,98,5,98s0.01-3.59,7.92-3.57c0.33,0,1.08,0,1.08,0v0l4.48,0.01
	l26.93,26.53L13.74,118.44z"/>
<polygon fill="#5B003B" points="45.41,120.96 18.48,94.43 30.5,94.45 58.76,122.02 "/>
<path d="M58.76,122.02L87,124.25V130v8v14c0,11.75,26,12,26,0v-14v-8v-5.75l28.24-2.23l28.26-27.56l-57.5,0.1V94h0.01l0.05-5l0.07-7
	l0.07-6l0.06-6.04l-10.39-44.04l-1.76,31.31l-1.98-31.25l-9.76,44.34L88.28,76l-0.1,6l-0.1,7L88,94.03v0.52l-57.5-0.1L58.76,122.02z
	"/>
</svg>
